<?xml version="1.0" encoding="iso-8859-1"?>
<!-- Generator: Adobe Illustrator 19.0.0, SVG Export Plug-In . SVG Version: 6.00 Build 0)  -->
<svg version="1.1" id="Layer_1" xmlns="http://www.w3.org/2000/svg" xmlns:xlink="http://www.w3.org/1999/xlink" x="0px" y="0px"
	 viewBox="0 0 512 512" style="enable-background:new 0 0 512 512;" xml:space="preserve">
<path style="fill:#FB7686;" d="M372.867,106.084h-38.53V56.332c0-5.374-4.37-9.745-9.743-9.745H187.406
	c-5.372,0-9.744,4.371-9.744,9.745v49.753h-38.53V56.332c0-26.618,21.655-48.275,48.273-48.275h137.189
	c26.618,0,48.272,21.655,48.272,48.275V106.084z"/>
<g>
	<rect x="139.129" y="65.352" style="opacity:0.2;fill:#145587;enable-background:new    ;" width="38.53" height="40.732"/>
	<rect x="334.335" y="65.352" style="opacity:0.2;fill:#145587;enable-background:new    ;" width="38.53" height="40.732"/>
</g>
<path style="fill:#89BBE4;" d="M67.683,127.31l37.937,349.519c1.675,15.425,14.7,27.115,30.217,27.115h240.322
	c15.517,0,28.543-11.689,30.218-27.115l37.937-349.519C444.315,127.31,67.683,127.31,67.683,127.31z"/>
<path style="fill:#F9C526;" d="M101.454,438.441l4.166,38.386c1.675,15.425,14.7,27.115,30.217,27.115h240.322
	c15.517,0,28.543-11.689,30.218-27.115l4.166-38.386H101.454z"/>
<g>
	<polygon style="opacity:0.15;fill:#145587;enable-background:new    ;" points="67.683,127.31 74.793,192.81 437.205,192.81 
		444.317,127.31 	"/>
	<path style="fill:#145587;" d="M463.215,83.747H48.784c-8.372,0-15.158,6.786-15.158,15.157v44.229
		c0,8.372,6.786,15.158,15.158,15.158h414.433c8.372,0,15.158-6.786,15.158-15.158V98.904
		C478.374,90.533,471.587,83.747,463.215,83.747z"/>
</g>
<g>
	<path style="fill:#1F84CE;" d="M256,386.889c-4.45,0-8.057-3.606-8.057-8.057v-139.62c0-4.451,3.607-8.057,8.057-8.057
		c4.451,0,8.057,3.606,8.057,8.057v139.62C264.057,383.282,260.45,386.889,256,386.889z"/>
	<path style="fill:#1F84CE;" d="M163.836,386.89c-4.11,0-7.621-3.13-8.012-7.306l-13.101-139.62c-0.416-4.43,2.839-8.358,7.27-8.774
		c4.436-0.419,8.359,2.838,8.775,7.27l13.101,139.62c0.416,4.43-2.839,8.358-7.27,8.774
		C164.342,386.877,164.089,386.89,163.836,386.89z"/>
	<path style="fill:#1F84CE;" d="M348.163,386.89c-0.251,0-0.506-0.013-0.762-0.037c-4.43-0.416-7.685-4.343-7.27-8.774l13.1-139.62
		c0.416-4.43,4.334-7.69,8.774-7.27c4.43,0.416,7.685,4.343,7.27,8.774l-13.1,139.62C355.784,383.759,352.273,386.89,348.163,386.89
		z"/>
</g>
<path d="M463.215,75.69h-82.292V56.332C380.924,25.269,355.654,0,324.593,0H187.406c-31.06,0-56.332,25.269-56.332,56.332v19.359
	h-82.29c-12.801,0-23.215,10.414-23.215,23.214v44.229c0,12.801,10.414,23.215,23.215,23.215h15.033l33.794,311.349
	C99.734,497.252,116.169,512,135.84,512h240.322c19.671,0,36.105-14.748,38.228-34.303l33.793-311.349h15.033
	c12.801,0,23.215-10.414,23.215-23.215v-44.23C486.431,86.104,476.017,75.69,463.215,75.69z M147.188,56.332
	c0-22.175,18.041-40.218,40.216-40.218h137.189c22.175,0,40.215,18.041,40.215,40.218v19.359h-22.416V56.332
	c0-9.817-7.985-17.802-17.8-17.802H187.406c-9.816,0-17.801,7.986-17.801,17.802v19.359h-22.416V56.332H147.188z M326.28,56.332
	v19.359H185.718V56.332c0-0.93,0.757-1.688,1.687-1.688h137.189C325.524,54.643,326.28,55.4,326.28,56.332z M398.369,475.958
	c-1.233,11.36-10.78,19.928-22.208,19.928H135.838c-11.427,0-20.974-8.567-22.207-19.928l-3.198-29.46h291.134L398.369,475.958z
	 M403.316,430.384H108.684L80.025,166.349h351.95L403.316,430.384z M470.317,143.133c0,3.916-3.186,7.101-7.101,7.101H48.784
	c-3.916,0-7.101-3.186-7.101-7.101V98.904c0-3.916,3.185-7.1,7.101-7.1h414.433c3.916,0,7.101,3.185,7.101,7.1V143.133z"/>
<g>
</g>
<g>
</g>
<g>
</g>
<g>
</g>
<g>
</g>
<g>
</g>
<g>
</g>
<g>
</g>
<g>
</g>
<g>
</g>
<g>
</g>
<g>
</g>
<g>
</g>
<g>
</g>
<g>
</g>
</svg>
