<?xml version="1.0" encoding="iso-8859-1"?>
<!-- Generator: Adobe Illustrator 19.0.0, SVG Export Plug-In . SVG Version: 6.00 Build 0)  -->
<svg version="1.1" id="Capa_1" xmlns="http://www.w3.org/2000/svg" xmlns:xlink="http://www.w3.org/1999/xlink" x="0px" y="0px"
	 viewBox="0 0 512 512" style="enable-background:new 0 0 512 512;" xml:space="preserve">
<path style="fill:#455058;" d="M412.601,201.683c-6.276,0-12.074-4.081-13.97-10.402L353.485,40.788h-194.97L113.368,191.28
	c-2.316,7.718-10.449,12.1-18.168,9.783c-7.719-2.315-12.099-10.45-9.783-18.168l48.267-160.89
	c1.851-6.172,7.532-10.398,13.975-10.398H364.34c6.443,0,12.124,4.227,13.975,10.398l48.267,160.89
	c2.316,7.718-2.064,15.852-9.782,18.168C415.402,201.483,413.989,201.683,412.601,201.683z"/>
<path style="fill:#D85C67;" d="M313.353,7.5H198.646c-3.645,0-6.599,2.955-6.599,6.599v24.196c0,3.645,2.955,6.6,6.599,6.6h114.707
	c3.645,0,6.599-2.955,6.599-6.6V14.1C319.953,10.455,316.998,7.5,313.353,7.5z"/>
<path style="fill:#BD364B;" d="M232.047,38.296V14.099c0-3.645,2.955-6.599,6.599-6.599h-40c-3.645,0-6.599,2.955-6.599,6.599
	v24.196c0,3.645,2.955,6.599,6.599,6.599h40C235.002,44.895,232.047,41.94,232.047,38.296z"/>
<g>
	<path style="fill:#3C464D;" d="M412.243,135.098h-30.466l16.854,56.182c1.896,6.321,7.694,10.402,13.97,10.402
		c1.388,0,2.8-0.2,4.199-0.619c7.718-2.316,12.098-10.45,9.782-18.168L412.243,135.098z"/>
	<path style="fill:#3C464D;" d="M99.756,135.098l-14.339,47.797c-2.316,7.718,2.064,15.853,9.783,18.168
		c7.719,2.317,15.852-2.064,18.168-9.783l16.854-56.182L99.756,135.098L99.756,135.098z"/>
</g>
<path style="fill:#D85C67;" d="M417.915,165.098H94.085c-15.705,0-27.687,14.042-25.217,29.551l40.136,275.808L256,487.478
	l146.996-17.021l40.136-275.808C445.602,179.141,433.619,165.098,417.915,165.098z"/>
<path style="fill:#BD364B;" d="M159.004,470.458L118.868,194.65c-2.47-15.509,9.512-29.551,25.217-29.551h-50
	c-15.705,0-27.687,14.042-25.217,29.551l40.136,275.808L256,487.479l25-2.895L159.004,470.458z"/>
<path style="fill:#50C4DF;" d="M377.864,154.094H134.135c-12.432,0-22.51,10.078-22.51,22.51v43.488
	c0,8.992,7.358,16.628,16.348,16.459c8.718-0.163,15.735-7.282,15.735-16.039v-9.164c0-8.992,7.358-16.628,16.348-16.459
	c8.718,0.163,15.735,7.282,15.735,16.039v49.045c0,8.992,7.358,16.628,16.348,16.459c8.718-0.163,15.735-7.282,15.735-16.039
	v-19.864c0-8.992,7.358-16.628,16.348-16.459c8.718,0.163,15.735,7.282,15.735,16.039v49.045c0,8.992,7.358,16.628,16.348,16.459
	c8.718-0.163,15.735-7.282,15.735-16.039v-68.5c0-8.992,7.358-16.628,16.348-16.459c8.718,0.163,15.735,7.282,15.735,16.039v29.591
	c0,8.992,7.358,16.628,16.348,16.459c8.718-0.163,15.735-7.282,15.735-16.039v-19.864c0-8.992,7.358-16.628,16.348-16.459
	c8.718,0.163,15.735,7.282,15.735,16.039v39.318c0,8.992,7.358,16.628,16.348,16.459c8.718-0.163,15.735-7.282,15.735-16.039
	v-93.518C400.374,164.172,390.296,154.094,377.864,154.094z"/>
<path style="fill:#3A484A;" d="M232.689,346.259v15.513c0,12.874,10.437,23.311,23.311,23.311l0,0
	c12.874,0,23.311-10.437,23.311-23.311v-15.513H232.689z"/>
<path style="fill:#50C4DF;" d="M402.995,470.458H109.004c-9.401,0-17.021,7.621-17.021,17.021l0,0
	c0,9.401,7.621,17.021,17.021,17.021h293.991c9.401,0,17.021-7.621,17.021-17.021l0,0
	C420.017,478.078,412.396,470.458,402.995,470.458z"/>
<path style="fill:#1AA5C4;" d="M141.983,487.479L141.983,487.479c0-9.4,7.621-17.021,17.021-17.021h-50
	c-9.401,0-17.021,7.621-17.021,17.021l0,0c0,9.401,7.621,17.021,17.021,17.021h50C149.603,504.5,141.983,496.88,141.983,487.479z"/>
<path d="M186.964,357.956V343.66c0-4.142-3.358-7.5-7.5-7.5s-7.5,3.358-7.5,7.5v14.296c0,4.142,3.358,7.5,7.5,7.5
	S186.964,362.098,186.964,357.956z"/>
<path d="M340.092,357.956V343.66c0-4.142-3.358-7.5-7.5-7.5s-7.5,3.358-7.5,7.5v14.296c0,4.142,3.358,7.5,7.5,7.5
	S340.092,362.098,340.092,357.956z"/>
<path d="M286.838,361.771v-15.513c0-4.142-3.358-7.5-7.5-7.5h-46.621c-4.142,0-7.5,3.358-7.5,7.5v15.513
	c0,16.989,13.822,30.811,30.811,30.811S286.838,378.761,286.838,361.771z M240.217,361.771v-8.013h31.621v8.013
	c0,8.718-7.093,15.811-15.811,15.811S240.217,370.49,240.217,361.771z"/>
<path d="M427.255,158.944L385.527,19.85c-2.824-9.417-11.327-15.743-21.159-15.743h-41.052C320.765,1.571,317.254,0,313.381,0
	H198.674c-3.872,0-7.384,1.571-9.935,4.107h-41.053c-9.831,0-18.333,6.327-21.159,15.743L84.8,158.944
	c-6.091,1.788-11.601,5.306-15.816,10.245c-6.274,7.353-9.007,17.04-7.503,26.586l9.919,68.161c0.597,4.099,4.401,6.936,8.502,6.342
	c4.099-0.596,6.938-4.403,6.342-8.502l-9.926-68.206c-0.005-0.033-0.01-0.066-0.015-0.1c-0.832-5.221,0.66-10.522,4.091-14.543
	c3.379-3.96,8.509-6.328,13.719-6.328h10.309c-0.178,1.325-0.268,2.669-0.268,4.006c0,0,0,43.426,0,43.497
	c0.045,13.183,11.169,23.529,23.988,23.949c12.735-0.238,23.095-10.797,23.095-23.538c0,0,0-9.153,0-9.164
	c0-11.236,17.083-11.507,17.083-0.42v49.045c0,11.747,8.355,21.54,19.336,23.569c0.034,0.006,0.068,0.012,0.102,0.019
	c5.278,0.98,10.879-0.002,15.549-2.629c7.308-4.111,12.095-12.132,12.095-20.539c0,0,0-19.807,0-19.871
	c0.028-5,4.466-9.504,9.562-8.893c4.19,0.502,7.521,4.264,7.521,8.48c0,0,0,49.033,0,49.046c0,13.148,10.834,23.958,23.959,23.958
	c0.01,0,0.02,0,0.03,0c12.734-0.239,23.095-10.798,23.095-23.538c0,0,0-68.489,0-68.5c0-4.686,3.9-9.045,8.707-8.96
	c4.619,0.086,8.376,3.917,8.376,8.54v29.591c0,10.939,7.246,20.183,17.111,23.042c0.022,0.006,0.043,0.013,0.065,0.019
	c14.66,4.283,29.907-7.476,29.907-22.641c0,0,0-19.789,0-19.864c0-4.608,3.955-9.078,8.708-8.96c4.529,0.112,8.375,4.009,8.375,8.54
	c0,0,0,39.318,0,39.327c0.004,10.927,7.238,20.161,17.089,23.027c0.046,0.014,0.092,0.027,0.138,0.04
	c14.608,4.207,29.857-7.428,29.857-22.655c0,0,0-93.518,0-93.519c0-1.335-0.09-2.681-0.268-4.005c0,0,10.306,0,10.309,0
	c10.925,0,19.528,10.09,17.81,20.872c-0.005,0.033-0.01,0.066-0.015,0.1l-39.202,269.388h-33.53c-4.142,0-7.5,3.358-7.5,7.5
	s3.358,7.5,7.5,7.5h40.018c5.25,0,9.521,4.271,9.521,9.521S408.274,497,403.024,497H109.032c-5.25,0-9.521-4.271-9.521-9.521
	s4.271-9.521,9.521-9.521h223.974c4.142,0,7.5-3.358,7.5-7.5s-3.358-7.5-7.5-7.5H115.52L90.609,291.776
	c-0.597-4.099-4.399-6.938-8.502-6.342c-4.099,0.596-6.938,4.403-6.342,8.502l24.815,170.523
	c-9.369,3.451-16.069,12.467-16.069,23.02c0,13.521,11,24.521,24.521,24.521h293.992c13.521,0,24.521-11,24.521-24.521
	c0-10.552-6.7-19.568-16.069-23.02c0,0,39.086-268.591,39.099-268.678C452.935,179.563,443.077,163.588,427.255,158.944z
	 M391.114,275.315c-1.535,1.987-3.914,3.296-6.588,3.347c-4.807,0.09-8.708-4.283-8.708-8.961c0,0,0-39.317,0-39.318
	c0-8.189-4.508-15.981-11.512-20.192c-12.289-7.389-27.95-1.562-33.587,11.299c-1.284,2.929-1.985,6.112-1.985,9.313
	c0,0,0,19.861,0,19.864c0,4.562-3.813,8.455-8.376,8.54c-4.765,0.095-8.707-4.322-8.707-8.96c0,0,0-29.577,0-29.591
	c0-12.55-10.578-23.305-23.11-23.538c-13.152-0.244-23.974,10.943-23.974,23.958v68.5c0,4.623-3.757,8.454-8.381,8.54
	c-4.765,0.089-8.702-4.321-8.702-8.96c0,0,0-49.032,0-49.045c0-12.543-10.593-23.304-23.11-23.537
	c-12.863-0.24-23.973,11.201-23.973,23.958v19.863c0,4.574-3.811,8.455-8.381,8.54c-4.763,0.089-8.702-4.325-8.702-8.96
	c0,0,0-47.912,0-49.026c0-14.209-13.42-25.597-27.417-23.228c-10.388,1.76-18.471,10.827-19.542,21.232
	c-0.082,0.796-0.123,1.597-0.123,2.397v9.164c0,4.623-3.757,8.454-8.376,8.54c-4.786,0.096-8.707-4.305-8.707-8.96
	c0,0,0-43.454,0-43.488c0-8.121,6.905-15.01,15.01-15.01c0,0,243.633,0,243.728,0c8.063,0,15.01,6.957,15.01,15.01v93.518
	C392.902,272.068,392.23,273.87,391.114,275.315z M134.632,146.594l29.491-98.306h24.616c2.551,2.536,6.062,4.107,9.935,4.107
	h114.707c3.872,0,7.384-1.571,9.935-4.107h24.617l29.491,98.306H134.632z M312.481,37.396H199.575V15h112.906V37.396z
	 M100.864,157.599L140.895,24.16c0.907-3.022,3.636-5.053,6.792-5.053h36.888v14.182h-26.032c-3.312,0-6.232,2.172-7.184,5.345
	l-33.916,113.053c-0.137,0.092-0.264,0.196-0.4,0.29c-2.274,1.586-4.346,3.476-6.103,5.622H100.864z M401.114,157.599
	c-1.855-2.264-4.071-4.277-6.501-5.912L360.697,38.634c-0.952-3.173-3.872-5.345-7.184-5.345h-26.032V19.107h36.888
	c3.156,0,5.885,2.031,6.792,5.053l40.031,133.438L401.114,157.599z"/>
<g>
</g>
<g>
</g>
<g>
</g>
<g>
</g>
<g>
</g>
<g>
</g>
<g>
</g>
<g>
</g>
<g>
</g>
<g>
</g>
<g>
</g>
<g>
</g>
<g>
</g>
<g>
</g>
<g>
</g>
</svg>
