<?xml version="1.0" encoding="iso-8859-1"?>
<!-- Generator: Adobe Illustrator 19.0.0, SVG Export Plug-In . SVG Version: 6.00 Build 0)  -->
<svg version="1.1" id="Capa_1" xmlns="http://www.w3.org/2000/svg" xmlns:xlink="http://www.w3.org/1999/xlink" x="0px" y="0px"
	 viewBox="0 0 511.999 511.999" style="enable-background:new 0 0 511.999 511.999;" xml:space="preserve">
<path style="fill:#FF9DC7;" d="M448.196,173.69l49.883-49.882c8.641-8.641,8.641-22.649,0-31.29L424.02,18.459
	c-8.641-8.641-22.649-8.641-31.29,0l-49.882,49.882l-34.664,11.403l47.033,81.577l81.577,47.033L448.196,173.69z"/>
<path style="fill:#E670A9;" d="M448.196,173.69l49.883-49.882c8.641-8.641,8.641-22.65,0-31.29l-21.218-21.218
	c8.641,8.641,8.64,22.65,0,31.29l-49.883,49.883l-11.403,34.664l-68.119-39.273l7.76,13.458l81.577,47.033L448.196,173.69z"/>
<path style="fill:#FF9DC7;" d="M72.908,443.63l-31.751-4.861L9.371,470.554c-3.252,3.252-2.245,8.751,1.948,10.639l41.811,18.827
	l24.64-24.64L72.908,443.63z"/>
<polygon style="fill:#E670A9;" points="72.908,443.63 54.507,440.812 56.551,454.163 23.869,486.845 53.13,500.021 77.769,475.381 
	"/>
<polygon style="fill:#FF9DC7;" points="202.764,313.773 112.969,274.954 60.267,327.655 105.462,411.076 188.882,456.271 
	241.583,403.569 "/>
<polygon style="fill:#E670A9;" points="202.764,313.773 187.951,307.368 220.366,382.351 167.663,435.053 98.005,397.314 
	105.462,411.076 188.882,456.271 241.583,403.569 "/>
<rect x="140.08" y="158.538" transform="matrix(-0.7071 0.7071 -0.7071 -0.7071 632.2991 237.0598)" style="fill:#EFEDEE;" width="253.946" height="181.89"/>
<rect x="193.787" y="288.179" transform="matrix(-0.7071 0.7071 -0.7071 -0.7071 761.9539 290.7527)" style="fill:#D4D2D3;" width="253.946" height="30.007"/>
<path style="fill:#FF9DC7;" d="M441.369,212.93L303.608,75.168c-3.785-3.785-9.92-3.785-13.705,0l-17.59,17.59
	c-3.785,3.785-3.785,9.92,0,13.705l137.762,137.762c3.785,3.785,9.92,3.785,13.705,0l17.59-17.59
	C445.154,222.851,445.154,216.715,441.369,212.93z"/>
<path style="fill:#E670A9;" d="M441.369,212.93l-26.021-26.021c3.785,3.785,3.785,9.92,0,13.705l-17.589,17.589
	c-3.785,3.785-9.92,3.785-13.705,0l26.021,26.021c3.785,3.785,9.92,3.785,13.705,0l17.589-17.589
	C445.154,222.851,445.154,216.715,441.369,212.93z"/>
<path style="fill:#D4D2D3;" d="M101.45,414.451l-47.966-17.135l-12.328,12.328c-8.043,8.043-8.043,21.082,0,29.125l36.613,36.613
	c8.043,8.043,21.082,8.043,29.125,0l12.328-12.328L101.45,414.451z"/>
<path style="fill:#BAB8B9;" d="M119.222,463.053l-17.772-48.602l-15.482-5.53l12.036,32.915l-12.328,12.328
	c-8.042,8.042-21.081,8.042-29.124,0.001l21.217,21.217c8.043,8.043,21.083,8.043,29.125,0L119.222,463.053z"/>
<polygon style="fill:#EFEDEE;" points="188.874,456.272 119.222,463.053 53.484,397.315 60.266,327.663 "/>
<polygon style="fill:#D4D2D3;" points="167.656,435.054 98.004,441.835 119.222,463.053 188.875,456.272 "/>
<path d="M236.015,215.966l6.797-6.797c2.93-2.93,2.93-7.679,0-10.608s-7.68-2.93-10.608,0l-6.797,6.797
	c-2.93,2.93-2.93,7.68,0,10.608C228.297,218.857,233.128,218.855,236.015,215.966z"/>
<path d="M311.126,291.078l6.797-6.797c2.93-2.93,2.93-7.679,0-10.608s-7.68-2.93-10.608,0l-6.797,6.797
	c-2.93,2.93-2.93,7.679-0.001,10.608C303.417,293.977,308.231,293.974,311.126,291.078z"/>
<path d="M259.974,230.991c-4.139-0.28-7.71,2.849-7.988,6.982c-0.473,7.044,2.206,14.034,7.349,19.177
	c5.008,5.007,12.087,7.824,19.177,7.349c4.134-0.277,7.26-3.854,6.983-7.987c-0.278-4.134-3.841-7.26-7.988-6.983
	c-2.73,0.182-5.481-0.906-7.563-2.988c-2.082-2.082-3.171-4.838-2.989-7.563C267.233,234.845,264.108,231.269,259.974,230.991z"/>
<path d="M53.082,507.516c1.949,0,3.869-0.76,5.306-2.198l20.054-20.054c4.176,2.373,8.911,3.643,13.844,3.643
	c7.505,0,14.56-2.923,19.867-8.229l10.426-10.426c0,0,66.947-6.518,66.981-6.522c1.685-0.178,3.383-0.964,4.58-2.162
	l211.352-211.352c3.243,2.876,7.31,4.333,11.389,4.333c4.402,0,8.806-1.676,12.158-5.027c0,0,17.581-17.581,17.589-17.589
	c6.627-6.627,6.618-17.697,0-24.315l-1.312-1.312l9.402-28.582l48.618-48.619c11.552-11.552,11.552-30.347,0-41.9l-74.058-74.058
	c-11.552-11.552-30.348-11.552-41.9,0l-48.619,48.619l-28.582,9.402c0,0-1.311-1.311-1.312-1.312c-6.629-6.63-17.693-6.624-24.315,0
	c0,0-17.579,17.579-17.59,17.589c-6.342,6.342-6.646,16.851-0.695,23.547L158.13,219.131c-2.93,2.93-2.93,7.68,0,10.608
	c2.93,2.93,7.68,2.93,10.608,0l108.102-108.102l118.006,118.007L241.538,392.953L123.532,274.947l23.988-23.988
	c2.93-2.93,2.93-7.679,0-10.608c-2.93-2.93-7.68-2.93-10.608,0c0,0-81.981,81.981-81.995,81.995c-1.198,1.199-2.004,2.9-2.163,4.584
	l-6.521,66.976l-10.426,10.426c-9.117,9.117-10.639,22.991-4.58,33.705c0,0-27.181,27.18-27.206,27.205
	c-6.842,6.842-4.622,18.823,4.173,22.784l41.811,18.827C50.992,507.3,52.042,507.516,53.082,507.516z M277.572,98.055
	c0,0,17.59-17.59,17.591-17.591c0.851-0.851,2.246-0.848,3.095,0.001l88.938,88.938c2.93,2.93,7.68,2.93,10.608,0
	c2.93-2.93,2.93-7.679,0-10.608l-75.741-75.742l23.082-7.593c1.115-0.367,2.129-0.991,2.96-1.821l49.883-49.882
	c5.702-5.701,14.979-5.701,20.682,0l74.058,74.058c5.702,5.702,5.702,14.979,0,20.682l-49.883,49.882
	c-0.831,0.83-1.454,1.844-1.821,2.96l-7.593,23.083l-15.374-15.374c-2.93-2.93-7.68-2.93-10.608,0c-2.93,2.93-2.93,7.679,0,10.608
	c0,0,28.57,28.57,28.572,28.572c0.847,0.848,0.847,2.247-0.001,3.095l-17.589,17.589c-0.854,0.854-2.244,0.854-3.097,0
	c0,0-137.762-137.762-137.763-137.763C276.721,100.3,276.725,98.901,277.572,98.055z M121.976,455.237l-60.727-60.727l4.898-50.317
	l106.145,106.145L121.976,455.237z M188.832,445.659L70.826,327.653l42.098-42.097L230.93,403.563L188.832,445.659z M46.415,414.941
	l7.024-7.024l55.129,55.129l-7.024,7.024c-5.053,5.053-13.472,5.043-18.516,0l-36.612-36.612
	C41.31,428.352,41.31,420.045,46.415,414.941z M41.11,449.37l26.004,26.004l-15.673,15.673l-35.86-16.148L41.11,449.37z"/>
<g>
</g>
<g>
</g>
<g>
</g>
<g>
</g>
<g>
</g>
<g>
</g>
<g>
</g>
<g>
</g>
<g>
</g>
<g>
</g>
<g>
</g>
<g>
</g>
<g>
</g>
<g>
</g>
<g>
</g>
</svg>
