<svg id="Layer_1" enable-background="new 0 0 128 128" height="512" viewBox="0 0 128 128" width="512" xmlns="http://www.w3.org/2000/svg"><path d="m122.725 30.519-21.166-21.234c-.904-.908-2.158-1.428-3.439-1.428h-4.512-55.217-25.677c-2.679 0-4.857 2.179-4.857 4.857v106.572c0 2.678 2.179 4.857 4.857 4.857h106.571c2.679 0 4.857-2.179 4.857-4.857v-85.338c.001-1.294-.503-2.512-1.417-3.429z" fill="#e6e7e8"/><path d="m118.017 27.225-21.166-21.234c-.724-.726-1.707-1.134-2.732-1.134h-85.405c-2.13 0-3.857 1.727-3.857 3.857v106.571c0 2.13 1.727 3.857 3.857 3.857h106.571c2.13 0 3.857-1.727 3.857-3.857v-85.337c0-1.021-.404-2-1.125-2.723z" fill="#6dc9f7"/><path d="m34.391 4.857v30.196c0 2.101 1.703 3.804 3.804 3.804h47.608c2.101 0 3.804-1.703 3.804-3.804v-30.196z" fill="#fff"/><path d="m37.248 4.857v30.196c0 2.101 1.703 3.804 3.804 3.804h44.751c2.101 0 3.804-1.703 3.804-3.804v-30.196z" fill="#0089ef"/><path d="m81.232 10.571h-4.18c-1.47 0-2.661 1.192-2.661 2.661v17.249c0 1.47 1.192 2.661 2.661 2.661h4.18c1.47 0 2.661-1.192 2.661-2.661v-17.248c.001-1.47-1.191-2.662-2.661-2.662z" fill="#d4fbff"/><path d="m91.518 62.286h-59.037c-2.101 0-3.804 1.703-3.804 3.804v43.534c0 2.101 1.703 3.804 3.804 3.804h59.037c2.101 0 3.804-1.703 3.804-3.804v-43.534c0-2.101-1.703-3.804-3.804-3.804z" fill="#ffd7e5"/><path d="m91.518 62.286h-59.037c-2.101 0-3.804 1.703-3.804 3.804v10.196h66.645v-10.196c0-2.101-1.703-3.804-3.804-3.804z" fill="#fa759e"/><path d="m91.518 114.429c2.648 0 4.804-2.155 4.804-4.804v-43.535c0-2.649-2.155-4.804-4.804-4.804h-59.037c-2.649 0-4.805 2.155-4.805 4.804v43.535c0 2.649 2.155 4.804 4.805 4.804zm-61.841-4.805v-43.534c0-1.546 1.258-2.804 2.805-2.804h59.037c1.546 0 2.804 1.258 2.804 2.804v43.535c0 1.546-1.258 2.804-2.804 2.804h-59.038c-1.547 0-2.804-1.258-2.804-2.805z" fill="#3a2c60"/><path d="m118.725 26.518-21.167-21.233c-.917-.92-2.139-1.428-3.439-1.428h-4.511-55.217-25.677c-2.678 0-4.856 2.179-4.856 4.857v81.571c0 .552.447 1 1 1s1-.448 1-1v-81.571c0-1.575 1.281-2.857 2.856-2.857h24.678v29.195c0 2.649 2.155 4.805 4.804 4.805h47.608c2.649 0 4.805-2.155 4.805-4.805v-29.195h3.511c.765 0 1.483.298 2.023.84l21.167 21.233c.537.539.833 1.255.833 2.017v85.338c0 1.576-1.282 2.857-2.857 2.857h-106.572c-1.575 0-2.856-1.282-2.856-2.857v-9.285c0-.552-.447-1-1-1s-1 .448-1 1v9.286c0 2.678 2.179 4.857 4.856 4.857h106.571c2.679 0 4.857-2.179 4.857-4.857v-85.338c0-1.295-.503-2.513-1.417-3.43zm-30.117 8.535c0 1.546-1.258 2.805-2.805 2.805h-47.608c-1.546 0-2.804-1.258-2.804-2.805v-29.196h53.217z" fill="#3a2c60"/><path d="m4.857 103.143c.553 0 1-.448 1-1v-7.935c0-.552-.447-1-1-1s-1 .448-1 1v7.935c0 .552.447 1 1 1z" fill="#3a2c60"/><g fill="#fff"><path d="m87.664 86.637h-51.329c-.553 0-1-.448-1-1s.447-1 1-1h51.329c.553 0 1 .448 1 1s-.447 1-1 1z"/><path d="m87.664 95.208h-51.329c-.553 0-1-.448-1-1s.447-1 1-1h51.329c.553 0 1 .448 1 1s-.447 1-1 1z"/><path d="m87.664 103.78h-51.329c-.553 0-1-.448-1-1s.447-1 1-1h51.329c.553 0 1 .448 1 1s-.447 1-1 1z"/></g></svg>