<?xml version="1.0" encoding="iso-8859-1"?>
<!-- Generator: Adobe Illustrator 19.0.0, SVG Export Plug-In . SVG Version: 6.00 Build 0)  -->
<svg version="1.1" id="Capa_1" xmlns="http://www.w3.org/2000/svg" xmlns:xlink="http://www.w3.org/1999/xlink" x="0px" y="0px"
	 viewBox="0 0 512 512" style="enable-background:new 0 0 512 512;" xml:space="preserve">
<polygon style="fill:#855FB8;" points="360.204,504.485 167.828,504.485 167.828,448.376 360.204,264.016 "/>
<polygon style="fill:#7B49AD;" points="167.828,448.376 167.828,504.485 200.892,504.485 200.892,416.689 "/>
<polygon style="fill:#DCD7D8;" points="328.141,296.078 199.89,416.313 199.89,127.75 328.141,7.515 "/>
<g>
	<polygon style="fill:#CAC3C5;" points="199.89,127.75 199.89,416.313 223.937,393.769 223.937,105.205 	"/>
	<polygon style="fill:#CAC3C5;" points="199.89,127.75 199.89,223.937 328.141,103.703 328.141,7.515 	"/>
	<polygon style="fill:#CAC3C5;" points="199.89,320.125 199.89,416.313 328.141,296.078 328.141,199.89 	"/>
</g>
<g>
	<polygon style="fill:#B9AEB1;" points="199.89,127.75 199.89,223.937 223.436,201.863 223.436,105.675 	"/>
	<polygon style="fill:#B9AEB1;" points="199.89,320.125 199.89,416.313 223.436,394.239 223.436,298.051 	"/>
</g>
<path style="fill:#FF9D4A;" d="M143.781,7.515c0,39.843,16.268,72.141,56.11,72.141c-39.842,0-56.11,32.298-56.11,72.141
	c0-39.843-16.267-72.141-56.11-72.141C127.514,79.656,143.781,47.357,143.781,7.515z"/>
<g>
	<path style="fill:#FFB577;" d="M79.656,296.078c0,30.989,9.09,56.11,40.078,56.11c-30.989,0-40.078,25.121-40.078,56.11
		c0-30.989-9.09-56.11-40.078-56.11C70.566,352.188,79.656,327.067,79.656,296.078z"/>
	<path style="fill:#FFB577;" d="M440.36,71.64c0,26.562,5.501,48.094,32.063,48.094c-26.562,0-32.063,21.532-32.063,48.094
		c0-26.562-5.501-48.094-32.063-48.094C434.859,119.734,440.36,98.202,440.36,71.64z"/>
</g>
<path d="M360.204,355.695c-4.15,0-7.515,3.365-7.515,7.515v141.276c0,4.15,3.365,7.515,7.515,7.515s7.515-3.365,7.515-7.515V363.209
	C367.718,359.059,364.354,355.695,360.204,355.695z"/>
<path d="M363.153,257.104c-2.77-1.181-5.976-0.596-8.149,1.486l-19.349,18.542V7.515c0-6.434-7.949-9.895-12.654-5.483
	l-128.25,120.235c-1.516,1.421-2.376,3.405-2.376,5.483v286.693l-29.747,28.508c-1.48,1.418-2.316,3.378-2.316,5.426v56.11
	c0,4.15,3.365,7.515,7.515,7.515s7.515-3.365,7.515-7.515v-52.902l177.346-169.957v48.018c0,4.15,3.365,7.515,7.515,7.515
	s7.515-3.365,7.515-7.515v-65.628C367.718,261.006,365.922,258.285,363.153,257.104z M207.405,227.193l113.221-106.145v75.587
	L207.405,302.779V227.193z M320.626,24.861v75.587L207.405,206.592v-75.587L320.626,24.861z M207.405,323.381l113.221-106.145
	v74.299L207.405,400.039V323.381z"/>
<path d="M199.89,87.17c4.15,0,7.515-3.365,7.515-7.515c0-4.15-3.365-7.515-7.515-7.515c-42.282,0-48.595-40.49-48.595-64.626
	c0-4.15-3.365-7.515-7.515-7.515s-7.515,3.365-7.515,7.515c0,24.136-6.313,64.626-48.595,64.626c-4.15,0-7.515,3.365-7.515,7.515
	c0,4.15,3.365,7.515,7.515,7.515c42.282,0,48.595,40.49,48.595,64.626c0,4.15,3.365,7.515,7.515,7.515s7.515-3.365,7.515-7.515
	C151.296,127.66,157.609,87.17,199.89,87.17z M143.781,109.279c-5.574-13.315-14.132-23.361-25.261-29.624
	c11.129-6.263,19.686-16.309,25.261-29.624c5.574,13.315,14.132,23.361,25.261,29.624
	C157.912,85.919,149.355,95.964,143.781,109.279z"/>
<path d="M119.734,344.673c-13.979,0-32.564-5.038-32.564-48.595c0-4.15-3.365-7.515-7.515-7.515c-4.15,0-7.515,3.365-7.515,7.515
	c0,43.557-18.584,48.595-32.564,48.595c-4.15,0-7.515,3.365-7.515,7.515s3.365,7.515,7.515,7.515
	c13.979,0,32.564,5.038,32.564,48.595c0,4.15,3.365,7.515,7.515,7.515c4.15,0,7.515-3.365,7.515-7.515
	c0-43.557,18.584-48.595,32.564-48.595c4.15,0,7.515-3.365,7.515-7.515S123.884,344.673,119.734,344.673z M79.656,368.43
	c-3.622-7.358-8.321-12.596-13.562-16.242c5.241-3.646,9.94-8.883,13.562-16.242c3.622,7.358,8.321,12.596,13.562,16.242
	C87.977,355.834,83.278,361.071,79.656,368.43z"/>
<path d="M472.423,112.219c-14.735,0-24.548-6.9-24.548-40.579c0-4.15-3.365-7.515-7.515-7.515s-7.515,3.365-7.515,7.515
	c0,33.679-9.813,40.579-24.548,40.579c-4.15,0-7.515,3.365-7.515,7.515c0,4.15,3.365,7.515,7.515,7.515
	c14.735,0,24.548,6.9,24.548,40.579c0,4.15,3.365,7.515,7.515,7.515s7.515-3.365,7.515-7.515c0-33.679,9.813-40.579,24.548-40.579
	c4.15,0,7.515-3.365,7.515-7.515C479.937,115.584,476.573,112.219,472.423,112.219z M440.36,129.279
	c-2.199-3.818-4.884-7.003-8.041-9.545c3.158-2.542,5.842-5.726,8.041-9.545c2.199,3.818,4.884,7.003,8.041,9.545
	C445.244,122.276,442.559,125.46,440.36,129.279z"/>
<g>
</g>
<g>
</g>
<g>
</g>
<g>
</g>
<g>
</g>
<g>
</g>
<g>
</g>
<g>
</g>
<g>
</g>
<g>
</g>
<g>
</g>
<g>
</g>
<g>
</g>
<g>
</g>
<g>
</g>
</svg>
