<?xml version="1.0" encoding="iso-8859-1"?>
<!-- Generator: Adobe Illustrator 19.0.0, SVG Export Plug-In . SVG Version: 6.00 Build 0)  -->
<svg version="1.1" id="Capa_1" xmlns="http://www.w3.org/2000/svg" xmlns:xlink="http://www.w3.org/1999/xlink" x="0px" y="0px"
	 viewBox="0 0 512 512" style="enable-background:new 0 0 512 512;" xml:space="preserve">
<path style="fill:#B5D3E3;" d="M163.601,505.204H46.215c-19.166,0-34.703-15.537-34.703-34.704V204.54
	c0-11.748,9.523-21.271,21.271-21.271h144.25c11.748,0,21.271,9.523,21.271,21.271V470.5
	C198.305,489.667,182.767,505.204,163.601,505.204z"/>
<rect x="11.511" y="258.366" style="fill:#F5E0BC;" width="184.804" height="161.26"/>
<path style="fill:#8ABBD5;" d="M41.543,470.501V204.54c0-11.748,9.523-21.271,21.271-21.271H32.782
	c-11.748,0-21.271,9.523-21.271,21.271V470.5c0,19.166,15.537,34.704,34.703,34.704h30.032
	C57.081,505.204,41.543,489.666,41.543,470.501z"/>
<rect x="11.511" y="258.366" style="fill:#EDC28A;" width="30.03" height="161.26"/>
<rect x="86.556" y="65.455" style="fill:#B5D3E3;" width="37.107" height="30.05"/>
<g>
	<path style="fill:#EC5569;" d="M149.345,308.295L149.345,308.295c-10.041-10.041-26.321-10.041-36.362,0l-5.672,5.672
		c-1.352,1.352-3.546,1.352-4.898,0l-5.582-5.582c-10.041-10.041-26.321-10.041-36.362,0l0,0c-10.041,10.041-10.041,26.321,0,36.362
		l41.947,41.947c1.352,1.352,3.546,1.352,4.898,0l42.031-42.038C159.386,334.616,159.386,318.336,149.345,308.295z"/>
	<path style="fill:#EC5569;" d="M495.253,12.333L495.253,12.333c-5.498-5.498-14.413-5.498-19.912,0l-3.106,3.106
		c-0.741,0.741-1.941,0.741-2.682,0l-3.056-3.056c-5.499-5.498-14.413-5.498-19.912,0l0,0c-5.498,5.498-5.498,14.413,0,19.912
		l22.97,22.97c0.741,0.741,1.941,0.741,2.682,0l23.016-23.02C500.752,26.746,500.752,17.831,495.253,12.333z"/>
	<path style="fill:#EC5569;" d="M459.902,130.017L459.902,130.017c-6.793-6.793-17.806-6.793-24.598,0l-3.837,3.837
		c-0.915,0.915-2.398,0.915-3.313,0l-3.776-3.776c-6.793-6.793-17.806-6.793-24.598,0l0,0c-6.793,6.793-6.793,17.806,0,24.598
		l28.376,28.376c0.915,0.915,2.398,0.915,3.313,0l28.433-28.438C466.695,147.822,466.695,136.81,459.902,130.017z"/>
</g>
<path id="SVGCleanerId_0" style="fill:#EC5569;" d="M377.756,54.222L377.756,54.222c-7.671-7.67-20.106-7.67-27.776,0l-4.332,4.332
	c-1.033,1.033-2.708,1.033-3.741,0l-4.263-4.263c-7.67-7.67-20.106-7.67-27.776,0l0,0c-7.67,7.67-7.67,20.106,0,27.776
	l32.042,32.042c1.033,1.033,2.708,1.033,3.741,0l32.106-32.111C385.427,74.327,385.427,61.892,377.756,54.222z"/>
<g>
	<path id="SVGCleanerId_0_1_" style="fill:#EC5569;" d="M377.756,54.222L377.756,54.222c-7.671-7.67-20.106-7.67-27.776,0
		l-4.332,4.332c-1.033,1.033-2.708,1.033-3.741,0l-4.263-4.263c-7.67-7.67-20.106-7.67-27.776,0l0,0
		c-7.67,7.67-7.67,20.106,0,27.776l32.042,32.042c1.033,1.033,2.708,1.033,3.741,0l32.106-32.111
		C385.427,74.327,385.427,61.892,377.756,54.222z"/>
</g>
<path style="fill:#FF94D2;" d="M171.247,183.315c0-36.638-29.701-66.006-66.339-66.006l0,0c-36.638,0-66.339,29.367-66.339,66.006"
	/>
<path style="fill:#F77CC9;" d="M119.924,119.019c-4.827-1.106-9.849-1.71-15.016-1.71l0,0c-36.638,0-66.339,29.367-66.339,66.006
	h30.032C68.601,151.843,90.523,125.757,119.924,119.019z"/>
<path d="M256.153,29.616c1.212,0,2.442-0.294,3.583-0.915l26.113-14.214c3.642-1.982,4.986-6.542,3.004-10.183
	c-1.982-3.642-6.539-4.987-10.183-3.005l-26.113,14.214c-3.642,1.982-4.986,6.542-3.004,10.183
	C250.915,28.199,253.492,29.616,256.153,29.616z"/>
<path d="M226.443,29.727l-26.229,14.277c-3.642,1.982-4.986,6.542-3.004,10.183c1.361,2.502,3.939,3.92,6.601,3.92
	c1.212,0,2.442-0.294,3.583-0.915l26.229-14.277c3.642-1.982,4.986-6.542,3.004-10.183S230.087,27.745,226.443,29.727z"/>
<path d="M142.743,80.357c0.003,0.04,0.002,0.079,0.006,0.119c0.021,0.224,0.055,0.447,0.097,0.67
	c0.003,0.014,0.004,0.029,0.006,0.044c0.033,0.171,0.079,0.34,0.124,0.511c0.018,0.067,0.031,0.136,0.051,0.203
	c0.037,0.122,0.083,0.242,0.126,0.364c0.041,0.115,0.078,0.23,0.124,0.343c0.036,0.088,0.08,0.174,0.12,0.261
	c0.065,0.144,0.131,0.287,0.205,0.427c0.009,0.017,0.016,0.034,0.025,0.051c0.017,0.032,0.04,0.059,0.058,0.091
	c0.134,0.239,0.282,0.469,0.442,0.694c0.039,0.054,0.077,0.11,0.117,0.163c0.188,0.248,0.388,0.488,0.609,0.714
	c0.011,0.012,0.024,0.022,0.036,0.033c0.198,0.2,0.413,0.388,0.637,0.568c0.072,0.057,0.145,0.111,0.218,0.166
	c0.175,0.13,0.357,0.252,0.547,0.368c0.077,0.047,0.152,0.097,0.231,0.141c0.038,0.021,0.072,0.046,0.11,0.067l26.614,14.486
	c1.141,0.621,2.37,0.915,3.583,0.915c2.661,0,5.239-1.418,6.602-3.92c1.981-3.642,0.637-8.201-3.005-10.183l-14.5-7.893
	l14.959-8.142c3.642-1.982,4.986-6.542,3.005-10.183c-1.983-3.642-6.54-4.987-10.184-3.005l-27.073,14.736
	c-0.062,0.034-0.118,0.074-0.179,0.11c-0.138,0.08-0.276,0.161-0.409,0.25c-0.084,0.056-0.163,0.116-0.244,0.176
	c-0.116,0.085-0.232,0.169-0.344,0.261c-0.09,0.074-0.175,0.152-0.26,0.229c-0.094,0.085-0.188,0.169-0.278,0.259
	c-0.093,0.094-0.181,0.191-0.269,0.289c-0.074,0.083-0.149,0.164-0.22,0.25c-0.094,0.115-0.182,0.234-0.269,0.354
	c-0.057,0.078-0.115,0.154-0.169,0.235c-0.091,0.136-0.173,0.276-0.255,0.417c-0.034,0.059-0.074,0.114-0.106,0.174
	c-0.009,0.017-0.016,0.035-0.025,0.052c-0.074,0.138-0.138,0.28-0.203,0.422c-0.041,0.089-0.085,0.176-0.122,0.266
	c-0.045,0.111-0.082,0.225-0.122,0.337c-0.044,0.123-0.091,0.245-0.128,0.369c-0.019,0.065-0.032,0.132-0.05,0.198
	c-0.046,0.171-0.092,0.343-0.126,0.516c-0.002,0.013-0.003,0.026-0.006,0.039c-0.042,0.224-0.076,0.449-0.098,0.675
	c-0.004,0.039-0.003,0.079-0.006,0.118c-0.016,0.198-0.028,0.397-0.028,0.596C142.715,79.96,142.727,80.159,142.743,80.357z"/>
<path d="M287.128,145.733l-27.977-15.228c-3.646-1.983-8.202-0.637-10.183,3.005c-1.982,3.642-0.638,8.2,3.004,10.183l27.977,15.228
	c1.141,0.621,2.37,0.915,3.583,0.915c2.661,0,5.239-1.418,6.601-3.92C292.115,152.275,290.77,147.716,287.128,145.733z"/>
<path d="M232.762,116.141l-26.046-14.177c-3.645-1.983-8.202-0.638-10.183,3.005c-1.982,3.642-0.638,8.2,3.004,10.183l26.046,14.177
	c1.141,0.621,2.37,0.915,3.583,0.915c2.661,0,5.239-1.418,6.601-3.92C237.748,122.682,236.403,118.124,232.762,116.141z"/>
<path d="M155.215,302.274c-12.952-12.952-34.028-12.952-46.981,0l-2.813,2.813l-2.721-2.722c-12.952-12.952-34.028-12.952-46.981,0
	s-12.952,34.027,0,46.98l41.948,41.948c2.072,2.071,4.827,3.212,7.757,3.212c2.932,0,5.687-1.141,7.758-3.213l15.851-15.854
	c2.932-2.932,2.932-7.686-0.001-10.617c-2.933-2.932-7.687-2.932-10.617,0.001l-12.991,12.993l-39.087-39.087
	c-7.099-7.098-7.099-18.648,0-25.746c7.098-7.099,18.647-7.098,25.745,0l5.582,5.583c4.277,4.275,11.238,4.275,15.515-0.001
	l5.672-5.673c7.097-7.098,18.648-7.098,25.745,0c3.439,3.438,5.332,8.01,5.332,12.873c0,4.863-1.894,9.434-5.332,12.873l-4.419,4.42
	c-2.932,2.932-2.932,7.686,0.001,10.617c2.933,2.932,7.687,2.93,10.617-0.001l4.419-4.42
	C168.168,336.301,168.168,315.226,155.215,302.274z"/>
<path d="M501.123,6.312L501.123,6.312c-8.137-8.135-21.204-8.406-29.671-0.814c-8.465-7.542-21.496-7.256-29.615,0.864
	c-8.416,8.416-8.416,22.112,0,30.529l22.97,22.97c1.834,1.834,4.241,2.75,6.651,2.75c2.407,0,4.817-0.917,6.651-2.751l23.015-23.019
	C509.539,28.424,509.539,14.728,501.123,6.312z M490.504,26.224l-19.047,19.051l-19.002-19.002
	c-1.241-1.241-1.926-2.892-1.926-4.648c0-1.755,0.685-3.405,1.926-4.648c1.281-1.281,2.964-1.922,4.648-1.922
	c1.684,0,3.366,0.641,4.648,1.921l3.058,3.059c3.666,3.664,9.631,3.663,13.298-0.002l3.105-3.105c2.564-2.563,6.733-2.564,9.295,0
	c1.24,1.241,1.925,2.892,1.925,4.648C492.43,23.332,491.746,24.982,490.504,26.224z"/>
<path d="M465.771,123.995c-9.709-9.708-25.506-9.708-35.216,0.001l-0.185,0.185l-0.123-0.124
	c-4.704-4.704-10.957-7.293-17.609-7.293s-12.905,2.59-17.609,7.293c-9.709,9.709-9.709,25.506,0,35.216l28.377,28.376
	c1.921,1.92,4.442,2.88,6.965,2.88c2.523,0,5.045-0.96,6.966-2.881l28.433-28.437c4.703-4.704,7.293-10.957,7.293-17.607
	S470.474,128.698,465.771,123.995L465.771,123.995z M455.154,148.594l-24.782,24.785l-24.724-24.724
	c-3.856-3.855-3.856-10.127,0-13.982c1.867-1.867,4.35-2.896,6.99-2.896s5.123,1.028,6.99,2.895l3.777,3.778
	c3.842,3.839,10.09,3.838,13.93-0.002l3.836-3.837c3.856-3.856,10.128-3.855,13.982,0
	C459.009,138.467,459.009,144.739,455.154,148.594z"/>
<path d="M383.626,48.201L383.626,48.201c-5.128-5.128-11.946-7.952-19.197-7.952c-7.251,0-14.069,2.824-19.197,7.952l-0.895,0.895
	l-0.825-0.826c-5.127-5.127-11.945-7.951-19.196-7.951s-14.069,2.824-19.196,7.951c-5.128,5.128-7.952,11.945-7.952,19.197
	c0,7.251,2.824,14.069,7.951,19.196l32.042,32.042c1.98,1.98,4.58,2.969,7.179,2.969c2.601,0,5.2-0.99,7.18-2.969l32.104-32.11
	c5.128-5.128,7.952-11.946,7.952-19.197S388.753,53.329,383.626,48.201z M373.008,75.977L344.34,104.65l-28.603-28.603
	c-2.291-2.292-3.554-5.338-3.554-8.58c0-3.241,1.262-6.287,3.555-8.58c2.291-2.292,5.338-3.554,8.579-3.554
	c3.24,0,6.287,1.262,8.579,3.554l4.263,4.263c3.96,3.96,10.401,3.959,14.359,0l4.331-4.332c2.292-2.291,5.339-3.554,8.58-3.554
	c3.24,0,6.287,1.262,8.579,3.554h0.001c2.291,2.291,3.554,5.338,3.554,8.579C376.562,70.638,375.3,73.685,373.008,75.977z"/>
<path d="M178.973,175.084c-1.115-11.736-5.015-22.962-11.465-32.808c-2.272-3.468-6.928-4.437-10.393-2.166
	c-3.468,2.272-4.439,6.926-2.166,10.394c4.838,7.385,7.864,15.763,8.922,24.545H47.078c1.56-12.931,7.357-24.835,16.746-34.067
	c11.068-10.884,25.857-16.878,41.645-16.878c10.664,0,21.084,2.79,30.134,8.068c3.582,2.088,8.178,0.878,10.267-2.704
	c2.089-3.582,0.879-8.178-2.703-10.267c-8.907-5.193-18.858-8.455-29.168-9.622v-7.287h10.22c4.147,0,7.507-3.361,7.507-7.507
	V64.739c0-4.146-3.36-7.507-7.507-7.507H87.112c-4.147,0-7.507,3.361-7.507,7.507v30.047c0,4.146,3.36,7.507,7.507,7.507h11.872
	v7.085c-17.295,1.461-33.329,8.744-45.689,20.899c-12.293,12.089-19.723,27.796-21.335,44.808
	c-15.228,0.724-27.395,13.338-27.395,28.744v265.96C4.564,493.064,23.5,512,46.775,512h117.388c23.275,0,42.21-18.936,42.21-42.211
	v-265.96C206.373,188.421,194.203,175.806,178.973,175.084z M94.62,72.246h20.888c-2.967,1.003-5.105,3.803-5.105,7.108v0.816
	c0,3.305,2.139,6.106,5.106,7.108H94.62V72.246z M19.579,265.164h171.778v146.965H19.579V265.164z M33.343,190.064h144.25
	c7.59,0,13.764,6.174,13.764,13.764v46.322H19.579v-46.322C19.579,196.239,25.753,190.064,33.343,190.064z M164.163,496.985H46.775
	c-14.996,0-27.196-12.2-27.196-27.196v-42.644h171.778v42.644C191.358,484.784,179.158,496.985,164.163,496.985z"/>
<g>
</g>
<g>
</g>
<g>
</g>
<g>
</g>
<g>
</g>
<g>
</g>
<g>
</g>
<g>
</g>
<g>
</g>
<g>
</g>
<g>
</g>
<g>
</g>
<g>
</g>
<g>
</g>
<g>
</g>
</svg>
